# xmcd
#
# Track frame offsets:
#	150
#	14210
#	27137
#	38331
#	50170
#	60668
#	72749
#	89820
#	103731
#	119896
#	130259
#	142373
#
# Disc length: 2047 seconds
#
# Revision: 1
# Processed by: cddbd v1.5.2PL0 Copyright (c) Steve Scherf et al.
# Submitted via: audiograbber 1.83.01
#
DISCID=c407fd0c
DTITLE=Ronny - Über die weite Prärie
DYEAR=2013
DGENRE=Country
TTITLE0=Tom Dooley
TTITLE1=Welcome Stranger
TTITLE2=Schwarze Reiter ziehen durch die Nacht
TTITLE3=Wind in my Hair
TTITLE4=Jesse James
TTITLE5=Wenn der Tag zu Ende geht
TTITLE6=Sag, warum willst du von mir gehn
TTITLE7=Fly Bird, Fly to Buffalo
TTITLE8=Es hängt ein Pferdehalfter an der Wand
TTITLE9=Good Old Mountain Music´s Goin Round
TTITLE10=Musst nicht weinen um mich
TTITLE11=Träume Liebling
EXTD=
EXTT0=
EXTT1=
EXTT2=
EXTT3=
EXTT4=
EXTT5=
EXTT6=
EXTT7=
EXTT8=
EXTT9=
EXTT10=
EXTT11=
PLAYORDER=
